<svg width="31" height="31" viewBox="0 0 31 31" fill="none" xmlns="http://www.w3.org/2000/svg">
<path d="M19.6924 22.8265C18.706 22.2825 17.7656 21.6463 16.816 21.0469C16.1891 20.6504 15.5622 20.3001 14.8984 20.0234C14.8984 20.6043 14.8984 21.1945 14.9169 21.7754C14.9169 22.513 15.1289 23.2138 15.4516 23.8777C16.1891 25.4176 17.655 26.0077 19.1761 25.8694C20.642 25.7311 21.5362 24.9012 21.9972 23.5273C22.0064 23.4996 22.0156 23.4628 22.0249 23.4351C21.2228 23.4351 20.4392 23.2322 19.7108 22.8265H19.6924Z" fill="white"/>
<path d="M15.4974 0C6.94203 0 0 6.94319 0 15.5C0 24.0568 6.94203 31 15.4974 31C24.0528 31 30.9948 24.0568 30.9948 15.5C30.9948 6.94319 24.0528 0 15.4974 0ZM26.1916 21.724C25.2697 22.4432 24.2925 23.0702 23.1217 23.3192C22.8359 23.3837 22.5501 23.4114 22.2735 23.4298C21.9047 25.0065 20.9091 26.0208 19.2865 26.3897C18.0327 26.6755 16.7881 26.6294 15.5712 26.279C14.0131 25.818 13.0912 24.7299 12.7224 23.1624C12.5104 22.2864 12.5012 21.3828 12.5012 20.4884C12.5012 20.138 12.5012 19.7876 12.5012 19.428C11.0722 19.262 9.81841 19.2989 9.33901 19.2805C8.68445 19.2528 7.64269 19.2805 7.64269 19.2805C7.64269 19.2805 7.67034 16.7079 7.67034 16.2745C7.67034 13.37 7.67034 10.4747 7.67034 7.5702C7.67034 7.15526 7.67034 5.0345 7.67034 5.0345H9.96592C9.96592 5.0345 9.96592 7.01695 9.96592 7.14604C9.96592 11.0003 9.96592 14.8546 9.96592 18.7088C9.96592 18.7733 9.96592 18.9854 9.96592 18.9854C9.96592 18.9854 10.6666 19.05 11.736 19.1053C11.9941 19.1237 12.2523 19.1514 12.5012 19.1791C12.5012 17.7406 12.5012 16.3022 12.5012 14.8638C12.5012 14.6517 12.5012 12.1437 12.5012 12.1437H14.8705C14.8705 12.1437 14.8705 14.5503 14.8705 15.0297C14.8705 16.5604 14.8797 18.1002 14.889 19.6309C15.6265 19.8245 16.3179 20.055 16.9264 20.304C18.0788 20.7835 19.2127 21.2998 20.3928 21.6963C21.0105 21.8992 21.6282 22.0559 22.2551 22.1297C22.2735 21.9361 22.2827 21.7424 22.2827 21.5396C22.2827 19.4004 22.2827 17.2519 22.2827 15.1127C22.2827 14.707 22.2827 12.1344 22.2827 12.1344H22.5409C22.5409 12.1344 22.5501 13.5821 22.5409 14.6609C22.5224 16.8093 22.5501 18.9578 22.5224 21.1154C22.5224 21.4566 22.504 21.807 22.4763 22.1481C23.3614 22.2403 24.2556 22.185 25.1591 21.9453C25.4633 21.8623 25.7491 21.7424 26.0349 21.6318C26.1087 21.6041 26.1824 21.5764 26.2838 21.5949C26.2562 21.6318 26.2377 21.6779 26.2009 21.7055L26.1916 21.724Z" fill="white"/>
</svg>
