<svg width="39" height="27" viewBox="0 0 39 27" fill="none" xmlns="http://www.w3.org/2000/svg">
<rect width="39" height="27" rx="4" fill="#F9F5F1"/>
<g clip-path="url(#clip0_77_5419)">
<mask id="mask0_77_5419" style="mask-type:luminance" maskUnits="userSpaceOnUse" x="8" y="7" width="22" height="13">
<path d="M29.9122 7H8.85217V20H29.9122V7Z" fill="white"/>
</mask>
<g mask="url(#mask0_77_5419)">
<path d="M22.2301 8.39453H16.5358V18.614H22.2301V8.39453Z" fill="#FF5F00"/>
<path d="M16.8961 13.5015C16.8961 11.5154 17.8181 9.61956 19.3727 8.39178C16.5526 6.17095 12.4672 6.65845 10.2437 9.49317C8.02017 12.3098 8.50826 16.3904 11.3464 18.6113C13.7145 20.4709 17.0227 20.4709 19.3908 18.6113C17.8181 17.3834 16.8961 15.4876 16.8961 13.5015Z" fill="#EB001B"/>
<path d="M29.9122 13.5015C29.9122 17.0946 27.0017 20.0015 23.4044 20.0015C21.9402 20.0015 20.5301 19.514 19.3912 18.6113C22.2113 16.3904 22.6994 12.3098 20.4759 9.47511C20.1505 9.07789 19.789 8.69872 19.3912 8.39178C22.2113 6.17095 26.3148 6.65845 28.5203 9.49317C29.4241 10.6307 29.9122 12.039 29.9122 13.5015Z" fill="#F79E1B"/>
<path d="M29.2971 17.5262V17.3095H29.3874V17.2734H29.1705V17.3095H29.2609V17.5262H29.2971ZM29.7128 17.5262V17.2734H29.6405L29.5682 17.454L29.4959 17.2734H29.4236V17.5262H29.4778V17.3276L29.5501 17.4901H29.6044L29.6767 17.3276V17.5262H29.7128Z" fill="#F79E1B"/>
</g>
</g>
<defs>
<clipPath id="clip0_77_5419">
<rect width="21.6667" height="13" fill="white" transform="translate(8.66663 7)"/>
</clipPath>
</defs>
</svg>
