<svg width="59" height="27" viewBox="0 0 59 27" fill="none" xmlns="http://www.w3.org/2000/svg">
<rect width="59" height="27" rx="4" fill="#F9F5F1"/>
<path d="M48.8874 18.968H46.3542V20H48.7935C49.8255 20 50.4823 19.3433 50.4823 18.4051C50.4823 17.4669 49.9194 16.9978 48.9812 16.9978H47.8553C47.5739 16.9978 47.3862 16.8101 47.3862 16.5287C47.3862 16.2472 47.5739 16.0595 47.8553 16.0595H50.0132L50.4823 15.0275H47.9491C46.9171 15.0275 46.2604 15.6843 46.2604 16.5287C46.2604 17.4669 46.8233 17.9359 47.7615 17.9359H48.8874C49.1688 17.9359 49.3564 18.1236 49.3564 18.4051C49.4503 18.7803 49.2626 18.968 48.8874 18.968ZM44.2902 18.968H41.757V20H44.1963C45.2284 20 45.8851 19.3433 45.8851 18.4051C45.8851 17.4669 45.3222 16.9978 44.384 16.9978H43.2582C42.9767 16.9978 42.7891 16.8101 42.7891 16.5287C42.7891 16.2472 42.9767 16.0595 43.2582 16.0595H45.416L45.8851 15.0275H43.352C42.3199 15.0275 41.6632 15.6843 41.6632 16.5287C41.6632 17.4669 42.2262 17.9359 43.1643 17.9359H44.2902C44.5716 17.9359 44.7593 18.1236 44.7593 18.4051C44.8531 18.7803 44.5716 18.968 44.2902 18.968ZM41.0065 15.9658V14.9337H37.066V19.9062H41.0065V18.8742H38.1919V17.8422H40.9127V16.8101H38.1919V15.8719H41.0065V15.9658ZM34.6267 15.9658C35.0958 15.9658 35.2835 16.2472 35.2835 16.5287C35.2835 16.8101 35.0958 17.0916 34.6267 17.0916H33.2194V15.8719L34.6267 15.9658ZM33.2194 18.1236H33.7823L35.2835 19.9062H36.6908L35.002 18.0298C35.8464 17.8422 36.3155 17.2792 36.3155 16.5287C36.3155 15.5905 35.6587 14.9337 34.6267 14.9337H31.9998V19.9062H33.1256L33.2194 18.1236ZM30.2172 16.6225C30.2172 16.9978 30.0296 17.2792 29.5604 17.2792H28.0594V15.9658H29.4666C29.9358 15.9658 30.2172 16.2472 30.2172 16.6225ZM26.9335 14.9337V19.9062H28.0594V18.2174H29.5604C30.5925 18.2174 31.343 17.5607 31.343 16.5287C31.343 15.5905 30.6863 14.8399 29.6543 14.8399L26.9335 14.9337ZM25.2447 19.9062H26.652L24.6818 17.373L26.652 14.9337H25.2447L24.0251 16.5287L22.8054 14.9337H21.3982L23.3683 17.373L21.3982 19.8123H22.8054L24.0251 18.2174L25.2447 19.9062ZM21.0228 15.9658V14.9337H17.0824V19.9062H21.0228V18.8742H18.2083V17.8422H20.929V16.8101H18.2083V15.8719H21.0228V15.9658ZM43.8211 9.97022L45.7913 12.9725H47.1986V8H46.0727V11.2837L45.7913 10.8146L44.0087 8H42.5076V12.9725H43.6334V9.59494L43.8211 9.97022ZM38.9424 9.87639L39.3177 8.84438L39.693 9.87639L40.1621 11.0022H38.4734L38.9424 9.87639ZM40.9127 12.9725H42.1323L39.9744 8H38.4734L36.3155 12.9725H37.5351L38.0043 11.9404H40.4436L40.9127 12.9725ZM35.6587 12.9725L36.1279 11.9404H35.8464C35.002 11.9404 34.5329 11.3775 34.5329 10.5331V10.4393C34.5329 9.59494 35.002 9.03202 35.8464 9.03202H37.066V8H35.7526C34.2515 8 33.4071 9.03202 33.4071 10.4393V10.5331C33.4071 12.0343 34.2515 12.9725 35.6587 12.9725ZM31.4368 12.9725H32.5627V8.09382H31.4368V12.9725ZM28.9975 9.03202C29.4666 9.03202 29.6543 9.31347 29.6543 9.59494C29.6543 9.87639 29.4666 10.1579 28.9975 10.1579H27.5903V8.9382L28.9975 9.03202ZM27.5903 11.1899H28.1532L29.6543 12.9725H31.0616L29.3728 11.0961C30.2172 10.9084 30.6863 10.3455 30.6863 9.59494C30.6863 8.65674 30.0296 8 28.9975 8H26.3706V12.9725H27.4964L27.5903 11.1899ZM25.5262 9.03202V8H21.5858V12.9725H25.5262V11.9404H22.7116V10.9084H25.4324V9.87639H22.7116V8.9382H25.5262V9.03202ZM16.9886 12.9725H18.0206L19.4279 8.9382V12.9725H20.5538V8H18.6774L17.5515 11.3775L16.4257 8H14.5493V12.9725H15.6751V8.9382L16.9886 12.9725ZM10.8903 9.87639L11.2656 8.84438L11.6409 9.87639L12.11 11.0022H10.4212L10.8903 9.87639ZM12.8605 12.9725H14.0802L11.9223 8H10.515L8.35718 12.9725H9.57684L10.0459 11.9404H12.4853L12.8605 12.9725Z" fill="#006FCF"/>
</svg>
