<svg width="45" height="27" viewBox="0 0 45 27" fill="none" xmlns="http://www.w3.org/2000/svg">
<rect width="45" height="27" rx="4" fill="#F9F5F1"/>
<mask id="mask0_77_5412" style="mask-type:luminance" maskUnits="userSpaceOnUse" x="6" y="8" width="32" height="11">
<path d="M37.7526 8H6V18.2667H37.7526V8Z" fill="white"/>
</mask>
<g mask="url(#mask0_77_5412)">
<path d="M26.6882 8C24.4366 8 22.415 9.17161 22.415 11.3216C22.415 13.7976 25.9861 13.9667 25.9861 15.1988C25.9861 15.7181 25.3808 16.1892 24.364 16.1892C22.9113 16.1892 21.8218 15.5369 21.8218 15.5369L21.3618 17.7111C21.3618 17.7111 22.6087 18.2667 24.2792 18.2667C26.7487 18.2667 28.6856 17.0468 28.6856 14.8485C28.6856 12.2395 25.1024 12.0704 25.1024 10.923C25.1024 10.5123 25.5987 10.0654 26.6155 10.0654C27.7656 10.0654 28.7098 10.5365 28.7098 10.5365L29.1698 8.43482C29.1577 8.43482 28.1288 8 26.6882 8ZM6.06053 8.15702L6 8.47106C6 8.47106 6.94423 8.64016 7.80371 8.99043C8.90531 9.38902 8.97794 9.61851 9.17162 10.3311L11.1932 18.0976H13.9048L18.057 8.15702H15.3575L12.6822 14.9209L11.5927 9.18369C11.4959 8.53145 10.9874 8.15702 10.358 8.15702H6.06053ZM19.1465 8.15702L17.0281 18.0976H19.6065L21.7128 8.15702H19.1465ZM33.5036 8.15702C32.8862 8.15702 32.5594 8.48313 32.3172 9.0629L28.5403 18.0976H31.2399L31.7604 16.5878H35.0531L35.3678 18.0976H37.7526L35.6825 8.15702H33.5036ZM33.8546 10.8505L34.6536 14.5827H32.511L33.8546 10.8505Z" fill="#1434CB"/>
</g>
</svg>
